<?xml version="1.0" encoding="UTF-8" standalone="no"?>
<!-- Created with Inkscape (http://www.inkscape.org/) -->

<svg
   width="12.038541mm"
   height="8.3343754mm"
   viewBox="0 0 12.038541 8.3343754"
   version="1.1"
   id="svg1"
   inkscape:version="1.4.2 (f4327f4, 2025-05-13)"
   sodipodi:docname="Library.svg"
   xmlns:inkscape="http://www.inkscape.org/namespaces/inkscape"
   xmlns:sodipodi="http://sodipodi.sourceforge.net/DTD/sodipodi-0.dtd"
   xmlns="http://www.w3.org/2000/svg"
   xmlns:svg="http://www.w3.org/2000/svg">
  <sodipodi:namedview
     id="namedview1"
     pagecolor="#ffffff"
     bordercolor="#000000"
     borderopacity="0.25"
     inkscape:showpageshadow="2"
     inkscape:pageopacity="0.0"
     inkscape:pagecheckerboard="0"
     inkscape:deskcolor="#d1d1d1"
     inkscape:document-units="mm"
     inkscape:zoom="2.0334082"
     inkscape:cx="251.30223"
     inkscape:cy="157.12537"
     inkscape:window-width="1920"
     inkscape:window-height="1009"
     inkscape:window-x="-8"
     inkscape:window-y="-8"
     inkscape:window-maximized="1"
     inkscape:current-layer="layer1">
    <inkscape:page
       x="0"
       y="0"
       width="12.038541"
       height="8.3343754"
       id="page2"
       margin="0"
       bleed="0" />
  </sodipodi:namedview>
  <defs
     id="defs1" />
  <g
     inkscape:label="Layer 1"
     inkscape:groupmode="layer"
     id="layer1"
     transform="translate(-11.595673,-60.915146)">
    <g
       id="GND">
      <path
         d="m 11.595675,64.619312 v 0.926041 h 0.46302 5.55625 a 0.46302083,0.46302083 0 0 1 -0.46302,-0.463021 v -0.46302 h -5.09323 z m 6.01927,0.926041 h 5.55625 0.463021 v -0.926041 h -0.463021 -5.093229 v 0.46302 a 0.46302083,0.46302083 0 0 1 -0.463021,0.463021 z"
         style="baseline-shift:baseline;display:inline;overflow:visible;opacity:1;vector-effect:none;stroke-linecap:square;enable-background:accumulate;stop-color:#000000;stop-opacity:1"
         id="path31" />
      <path
         d="m 17.614945,60.915145 a 0.46302083,0.46302083 0 0 0 -0.46302,0.463021 v 3.704166 a 0.46302083,0.46302083 0 0 0 0.46302,0.463021 0.46302083,0.46302083 0 0 0 0.463021,-0.463021 v -3.704166 a 0.46302083,0.46302083 0 0 0 -0.463021,-0.463021 z"
         style="baseline-shift:baseline;display:inline;overflow:visible;opacity:1;vector-effect:none;stroke-linecap:round;enable-background:accumulate;stop-color:#000000;stop-opacity:1"
         id="path30" />
      <path
         d="m 13.447758,66.471395 v 0.926042 h 0.463021 7.408333 0.463021 v -0.926042 h -0.463021 -7.408333 z"
         style="baseline-shift:baseline;display:inline;overflow:visible;opacity:1;vector-effect:none;stroke-linecap:square;enable-background:accumulate;stop-color:#000000;stop-opacity:1"
         id="path29" />
      <path
         d="m 15.299841,68.323478 v 0.926042 h 0.463021 3.704167 0.463021 v -0.926042 h -0.463021 -3.704167 z"
         style="baseline-shift:baseline;display:inline;overflow:visible;opacity:1;vector-effect:none;stroke-linecap:square;enable-background:accumulate;stop-color:#000000;stop-opacity:1"
         id="path28" />
    </g>
  </g>
</svg>
