<?xml version="1.0" encoding="UTF-8" standalone="no"?>
<!-- Created with Inkscape (http://www.inkscape.org/) -->

<svg
   width="15.742708mm"
   height="23.151043mm"
   viewBox="0 0 15.742708 23.151043"
   version="1.1"
   id="svg1"
   inkscape:version="1.4.2 (f4327f4, 2025-05-13)"
   sodipodi:docname="Library.svg"
   xmlns:inkscape="http://www.inkscape.org/namespaces/inkscape"
   xmlns:sodipodi="http://sodipodi.sourceforge.net/DTD/sodipodi-0.dtd"
   xmlns="http://www.w3.org/2000/svg"
   xmlns:svg="http://www.w3.org/2000/svg">
  <sodipodi:namedview
     id="namedview1"
     pagecolor="#ffffff"
     bordercolor="#000000"
     borderopacity="0.25"
     inkscape:showpageshadow="2"
     inkscape:pageopacity="0.0"
     inkscape:pagecheckerboard="0"
     inkscape:deskcolor="#d1d1d1"
     inkscape:document-units="mm"
     inkscape:zoom="2.0334082"
     inkscape:cx="251.30223"
     inkscape:cy="157.12537"
     inkscape:window-width="1920"
     inkscape:window-height="1009"
     inkscape:window-x="-8"
     inkscape:window-y="-8"
     inkscape:window-maximized="1"
     inkscape:current-layer="layer1">
    <inkscape:page
       x="0"
       y="0"
       width="15.742708"
       height="23.151043"
       id="page2"
       margin="0"
       bleed="0" />
  </sodipodi:namedview>
  <defs
     id="defs1" />
  <g
     inkscape:label="Layer 1"
     inkscape:groupmode="layer"
     id="layer1"
     transform="translate(-37.737748,-25.238253)">
    <g
       id="VAC">
      <path
         d="m 45.146082,28.955855 c -4.126901,0.240297 -7.408334,3.671595 -7.408334,7.857919 0,4.186321 3.281433,7.617621 7.408334,7.857918 v -0.449585 a 0.46302083,0.46302083 0 0 1 0.46302,-0.463021 c -3.841273,0 -6.945312,-3.104039 -6.945312,-6.945312 0,-3.841277 3.104039,-6.945313 6.945312,-6.945313 a 0.46302083,0.46302083 0 0 1 -0.46302,-0.463021 z m 0.46302,0.912606 c 3.841274,0 6.945313,3.104036 6.945313,6.945313 0,3.841273 -3.104039,6.945312 -6.945313,6.945312 a 0.46302083,0.46302083 0 0 1 0.463021,0.463021 v 0.449585 c 4.126901,-0.240297 7.408334,-3.671597 7.408334,-7.857918 0,-4.186324 -3.281433,-7.617622 -7.408334,-7.857919 v 0.449585 a 0.46302083,0.46302083 0 0 1 -0.463021,0.463021 z"
         style="baseline-shift:baseline;display:inline;overflow:visible;opacity:1;vector-effect:none;stroke-linecap:square;stroke-linejoin:round;enable-background:accumulate;stop-color:#000000;stop-opacity:1"
         id="path15" />
      <path
         d="m 45.609102,43.759086 a 0.46302083,0.46302083 0 0 0 -0.46302,0.463021 v 3.704167 a 0.46302083,0.46302083 0 0 0 0.46302,0.46302 0.46302083,0.46302083 0 0 0 0.463021,-0.46302 v -3.704167 a 0.46302083,0.46302083 0 0 0 -0.463021,-0.463021 z"
         style="baseline-shift:baseline;display:inline;overflow:visible;opacity:1;vector-effect:none;stroke-linecap:round;enable-background:accumulate;stop-color:#000000;stop-opacity:1"
         id="path14" />
      <path
         d="m 45.609102,25.238253 a 0.46302083,0.46302083 0 0 0 -0.46302,0.463021 v 3.704166 a 0.46302083,0.46302083 0 0 0 0.46302,0.463021 0.46302083,0.46302083 0 0 0 0.463021,-0.463021 v -3.704166 a 0.46302083,0.46302083 0 0 0 -0.463021,-0.463021 z"
         style="baseline-shift:baseline;display:inline;overflow:visible;opacity:1;vector-effect:none;stroke-linecap:round;enable-background:accumulate;stop-color:#000000;stop-opacity:1"
         id="path13" />
      <path
         d="m 43.757019,34.498669 c -1.273111,0 -2.315104,1.04199 -2.315104,2.315105 a 0.46302083,0.46302083 0 0 0 0.463021,0.46302 0.46302083,0.46302083 0 0 0 0.463021,-0.46302 c 0,-0.772642 0.616421,-1.389063 1.389062,-1.389063 0.772642,0 1.389063,0.616424 1.389063,1.389063 0,1.273111 1.041992,2.315104 2.315104,2.315104 1.273111,0 2.315104,-1.041993 2.315104,-2.315104 a 0.46302083,0.46302083 0 0 0 -0.463021,-0.463021 0.46302083,0.46302083 0 0 0 -0.463021,0.463021 c 0,0.772638 -0.616421,1.389062 -1.389062,1.389062 -0.772642,0 -1.389063,-0.616424 -1.389063,-1.389062 0,-1.273112 -1.041992,-2.315105 -2.315104,-2.315105 z"
         style="baseline-shift:baseline;display:inline;overflow:visible;opacity:1;vector-effect:none;stroke-linecap:round;enable-background:accumulate;stop-color:#000000;stop-opacity:1"
         id="path11" />
    </g>
  </g>
</svg>
