<?xml version="1.0" encoding="UTF-8" standalone="no"?>
<!-- Created with Inkscape (http://www.inkscape.org/) -->

<svg
   width="15.742708mm"
   height="23.151043mm"
   viewBox="0 0 15.742708 23.151043"
   version="1.1"
   id="svg1"
   inkscape:version="1.4.2 (f4327f4, 2025-05-13)"
   sodipodi:docname="Library.svg"
   xmlns:inkscape="http://www.inkscape.org/namespaces/inkscape"
   xmlns:sodipodi="http://sodipodi.sourceforge.net/DTD/sodipodi-0.dtd"
   xmlns="http://www.w3.org/2000/svg"
   xmlns:svg="http://www.w3.org/2000/svg">
  <sodipodi:namedview
     id="namedview1"
     pagecolor="#ffffff"
     bordercolor="#000000"
     borderopacity="0.25"
     inkscape:showpageshadow="2"
     inkscape:pageopacity="0.0"
     inkscape:pagecheckerboard="0"
     inkscape:deskcolor="#d1d1d1"
     inkscape:document-units="mm"
     inkscape:zoom="2.0334082"
     inkscape:cx="251.30223"
     inkscape:cy="157.12537"
     inkscape:window-width="1920"
     inkscape:window-height="1009"
     inkscape:window-x="-8"
     inkscape:window-y="-8"
     inkscape:window-maximized="1"
     inkscape:current-layer="layer1">
    <inkscape:page
       x="0"
       y="0"
       width="15.742708"
       height="23.151043"
       id="page2"
       margin="0"
       bleed="0" />
  </sodipodi:namedview>
  <defs
     id="defs1" />
  <g
     inkscape:label="Layer 1"
     inkscape:groupmode="layer"
     id="layer1"
     transform="translate(-8.5338461,-25.238253)">
    <g
       id="VDC">
      <path
         d="m 15.942179,28.955855 c -4.126901,0.240297 -7.408333,3.671595 -7.408333,7.857919 0,4.186321 3.281432,7.617621 7.408333,7.857918 V 44.222107 A 0.46302083,0.46302083 0 0 1 16.4052,43.759086 c -3.841274,0 -6.9453123,-3.104039 -6.9453123,-6.945312 0,-3.841277 3.1040383,-6.945313 6.9453123,-6.945313 A 0.46302083,0.46302083 0 0 1 15.942179,29.40544 Z m 0.463021,0.912606 c 3.841275,0 6.945313,3.104036 6.945313,6.945313 0,3.841273 -3.104038,6.945312 -6.945313,6.945312 a 0.46302083,0.46302083 0 0 1 0.463021,0.463021 v 0.449585 c 4.126901,-0.240297 7.408333,-3.671597 7.408333,-7.857918 0,-4.186324 -3.281432,-7.617622 -7.408333,-7.857919 V 29.40544 A 0.46302083,0.46302083 0 0 1 16.4052,29.868461 Z"
         style="baseline-shift:baseline;display:inline;overflow:visible;opacity:1;vector-effect:none;stroke-linecap:square;stroke-linejoin:round;enable-background:accumulate;stop-color:#000000;stop-opacity:1"
         id="path10" />
      <path
         d="m 16.4052,43.759086 a 0.46302083,0.46302083 0 0 0 -0.463021,0.463021 v 3.704167 a 0.46302083,0.46302083 0 0 0 0.463021,0.46302 0.46302083,0.46302083 0 0 0 0.463021,-0.46302 V 44.222107 A 0.46302083,0.46302083 0 0 0 16.4052,43.759086 Z"
         style="baseline-shift:baseline;display:inline;overflow:visible;opacity:1;vector-effect:none;stroke-linecap:round;enable-background:accumulate;stop-color:#000000;stop-opacity:1"
         id="path9" />
      <path
         d="m 16.4052,25.238253 a 0.46302083,0.46302083 0 0 0 -0.463021,0.463021 V 29.40544 A 0.46302083,0.46302083 0 0 0 16.4052,29.868461 0.46302083,0.46302083 0 0 0 16.868221,29.40544 V 25.701274 A 0.46302083,0.46302083 0 0 0 16.4052,25.238253 Z"
         style="baseline-shift:baseline;display:inline;overflow:visible;opacity:1;vector-effect:none;stroke-linecap:round;enable-background:accumulate;stop-color:#000000;stop-opacity:1"
         id="path8" />
      <path
         d="m 15.016138,31.918982 v 0.529167 h 1.124479 v -0.529167 z m 1.653646,0 v 0.529167 h 1.124479 v -0.529167 z"
         style="baseline-shift:baseline;display:inline;overflow:visible;opacity:1;vector-effect:none;enable-background:accumulate;stop-color:#000000;stop-opacity:1"
         id="path7" />
      <path
         d="m 16.140617,30.794503 v 2.778125 h 0.529167 v -2.778125 z"
         style="baseline-shift:baseline;display:inline;overflow:visible;opacity:1;vector-effect:none;enable-background:accumulate;stop-color:#000000;stop-opacity:1"
         id="path6" />
      <path
         d="m 15.016138,41.179399 v 0.529166 h 2.778125 v -0.529166 z"
         style="baseline-shift:baseline;display:inline;overflow:visible;opacity:1;vector-effect:none;enable-background:accumulate;stop-color:#000000;stop-opacity:1"
         id="path5" />
    </g>
  </g>
</svg>
