<?xml version="1.0" encoding="UTF-8" standalone="no"?>
<svg
   width="99.985001"
   height="81.806"
   viewBox="0 0 99.985001 81.806"
   version="1.1"
   id="svg4"
   sodipodi:docname="C.svg"
   inkscape:version="1.4.2 (f4327f4, 2025-05-13)"
   xmlns:inkscape="http://www.inkscape.org/namespaces/inkscape"
   xmlns:sodipodi="http://sodipodi.sourceforge.net/DTD/sodipodi-0.dtd"
   xmlns="http://www.w3.org/2000/svg"
   xmlns:svg="http://www.w3.org/2000/svg">
  <sodipodi:namedview
     id="namedview1"
     pagecolor="#ffffff"
     bordercolor="#000000"
     borderopacity="0.25"
     inkscape:showpageshadow="2"
     inkscape:pageopacity="0.0"
     inkscape:pagecheckerboard="0"
     inkscape:deskcolor="#d1d1d1"
     inkscape:zoom="6.9742749"
     inkscape:cx="45.66783"
     inkscape:cy="47.388439"
     inkscape:window-width="1920"
     inkscape:window-height="1009"
     inkscape:window-x="-8"
     inkscape:window-y="-8"
     inkscape:window-maximized="1"
     inkscape:current-layer="svg4" />
  <defs
     id="defs1" />
  <path
     d="M 4.5447895,40.902993 H 40.903012"
     style="stroke:#000000;stroke-width:9.08956;stroke-linecap:round"
     id="path1" />
  <path
     d="M 40.903012,77.261215 V 4.5447705"
     style="stroke:#000000;stroke-width:9.08956;stroke-linecap:square"
     id="path2" />
  <path
     d="M 59.082123,77.261215 V 4.5447705"
     style="stroke:#000000;stroke-width:9.08956;stroke-linecap:square"
     id="path3" />
  <path
     d="M 59.082123,40.902993 H 95.440345"
     style="stroke:#000000;stroke-width:9.08956;stroke-linecap:round"
     id="path4" />
  <path
     id="pin1"
     d="M 4.5446856,39.903142 A 0.99985107,0.99985107 0 0 1 5.5445367,40.902993 0.99985107,0.99985107 0 0 1 4.5446856,41.902844 0.99985107,0.99985107 0 0 1 3.5448345,40.902993 0.99985107,0.99985107 0 0 1 4.5446856,39.903142 Z"
     style="stroke-width:2.59702" />
  <path
     id="pin2"
     d="m 95.440241,39.903142 a 0.99985107,0.99985107 0 0 1 0.999851,0.999851 0.99985107,0.99985107 0 0 1 -0.999851,0.999851 0.99985107,0.99985107 0 0 1 -0.999852,-0.999851 0.99985107,0.99985107 0 0 1 0.999852,-0.999851 z"
     style="stroke-width:2.59702" />
</svg>
