<?xml version="1.0" encoding="UTF-8" standalone="no"?>
<svg
   version="1.1"
   width="20.472401mm"
   height="10.3124mm"
   viewBox="0 0 20.472401 10.3124"
   id="svg1561"
   xmlns="http://www.w3.org/2000/svg"
   xmlns:svg="http://www.w3.org/2000/svg"
   xmlns:rdf="http://www.w3.org/1999/02/22-rdf-syntax-ns#"
   xmlns:cc="http://creativecommons.org/ns#"
   xmlns:dc="http://purl.org/dc/elements/1.1/">
  <defs
     id="defs1561" />
  <title
     id="title1">SVG Image created as Test.svg date 2025/12/17 00:35:57 </title>
  <desc
     id="desc1">Image generated by Eeschema-SVG </desc>
  <g
     id="TX"
     transform="translate(-191.6938,-114.2238)">
    <path
       d="M 199.3901,116.8205 A 1.2906,1.2906 0 0 0 200.66,115.57"
       id="path1115"
       style="fill:none;stroke:#000000;stroke-width:0.1524;stroke-linecap:round;stroke-linejoin:round;stroke-opacity:1" />
    <path
       d="M 199.3901,119.3605 A 1.2906,1.2906 0 0 0 200.66,118.11"
       id="path1116"
       style="fill:none;stroke:#000000;stroke-width:0.1524;stroke-linecap:round;stroke-linejoin:round;stroke-opacity:1" />
    <path
       d="M 199.3901,121.9005 A 1.2906,1.2906 0 0 0 200.66,120.65"
       id="path1117"
       style="fill:none;stroke:#000000;stroke-width:0.1524;stroke-linecap:round;stroke-linejoin:round;stroke-opacity:1" />
    <path
       d="M 199.3901,124.4405 A 1.2906,1.2906 0 0 0 200.66,123.19"
       id="path1118"
       style="fill:none;stroke:#000000;stroke-width:0.1524;stroke-linecap:round;stroke-linejoin:round;stroke-opacity:1" />
    <path
       d="m 200.66,115.57 a 1.27,1.27 0 0 0 -1.27,-1.27"
       id="path1119"
       style="fill:none;stroke:#000000;stroke-width:0.1524;stroke-linecap:round;stroke-linejoin:round;stroke-opacity:1" />
    <path
       d="m 200.66,118.11 a 1.27,1.27 0 0 0 -1.27,-1.27"
       id="path1120"
       style="fill:none;stroke:#000000;stroke-width:0.1524;stroke-linecap:round;stroke-linejoin:round;stroke-opacity:1" />
    <path
       d="m 200.66,120.65 a 1.27,1.27 0 0 0 -1.27,-1.27"
       id="path1121"
       style="fill:none;stroke:#000000;stroke-width:0.1524;stroke-linecap:round;stroke-linejoin:round;stroke-opacity:1" />
    <path
       d="m 200.66,123.19 a 1.27,1.27 0 0 0 -1.27,-1.27"
       id="path1122"
       style="fill:none;stroke:#000000;stroke-width:0.1524;stroke-linecap:round;stroke-linejoin:round;stroke-opacity:1" />
    <path
       style="fill:none;stroke:#000000;stroke-width:0.1524;stroke-linecap:round;stroke-linejoin:round;stroke-opacity:1"
       d="m 201.295,114.3 v 10.16"
       id="path1123" />
    <path
       style="fill:none;stroke:#000000;stroke-width:0.1524;stroke-linecap:round;stroke-linejoin:round;stroke-opacity:1"
       d="M 202.565,124.46 V 114.3"
       id="path1124" />
    <path
       d="m 204.4699,114.3049 a 1.2253,1.2253 0 0 0 -1.2445,1.2651"
       id="path1125"
       style="fill:none;stroke:#000000;stroke-width:0.1524;stroke-linecap:round;stroke-linejoin:round;stroke-opacity:1" />
    <path
       d="m 204.4699,116.8449 a 1.2253,1.2253 0 0 0 -1.2445,1.2651"
       id="path1126"
       style="fill:none;stroke:#000000;stroke-width:0.1524;stroke-linecap:round;stroke-linejoin:round;stroke-opacity:1" />
    <path
       d="m 204.4699,119.3849 a 1.2253,1.2253 0 0 0 -1.2445,1.2651"
       id="path1127"
       style="fill:none;stroke:#000000;stroke-width:0.1524;stroke-linecap:round;stroke-linejoin:round;stroke-opacity:1" />
    <path
       d="m 203.2254,115.57 a 1.2446,1.2446 0 0 0 1.2446,1.2446"
       id="path1128"
       style="fill:none;stroke:#000000;stroke-width:0.1524;stroke-linecap:round;stroke-linejoin:round;stroke-opacity:1" />
    <path
       d="m 203.2254,118.11 a 1.2446,1.2446 0 0 0 1.2446,1.2446"
       id="path1129"
       style="fill:none;stroke:#000000;stroke-width:0.1524;stroke-linecap:round;stroke-linejoin:round;stroke-opacity:1" />
    <path
       d="m 203.2254,120.65 a 1.2446,1.2446 0 0 0 1.2446,1.2446"
       id="path1130"
       style="fill:none;stroke:#000000;stroke-width:0.1524;stroke-linecap:round;stroke-linejoin:round;stroke-opacity:1" />
    <path
       d="m 204.4954,121.9202 a 1.2299,1.2299 0 0 0 -1.2446,1.2698"
       id="path1131"
       style="fill:none;stroke:#000000;stroke-width:0.1524;stroke-linecap:round;stroke-linejoin:round;stroke-opacity:1" />
    <path
       d="m 203.2454,123.19 a 1.2446,1.2446 0 0 0 1.25,1.2446"
       id="path1132"
       style="fill:none;stroke:#000000;stroke-width:0.1524;stroke-linecap:round;stroke-linejoin:round;stroke-opacity:1" />
    <path
       d="m 199.39,114.3 h -7.62"
       id="path1133"
       style="fill:none;stroke:#000000;stroke-width:0.1524;stroke-linecap:round;stroke-linejoin:round;stroke-opacity:1" />
    <path
       d="m 199.39,124.46 h -7.62"
       id="path1139"
       style="fill:none;stroke:#000000;stroke-width:0.1524;stroke-linecap:round;stroke-linejoin:round;stroke-opacity:1" />
    <path
       d="m 204.47,114.3 h 7.62"
       id="path1150"
       style="fill:none;stroke:#000000;stroke-width:0.1524;stroke-linecap:round;stroke-linejoin:round;stroke-opacity:1" />
    <path
       d="m 204.47,124.46 h 7.62"
       id="path1154"
       style="fill:none;stroke:#000000;stroke-width:0.1524;stroke-linecap:round;stroke-linejoin:round;stroke-opacity:1" />
  </g>
  <metadata
     id="metadata1568">
    <rdf:RDF>
      <cc:Work
         rdf:about="">
        <dc:title>SVG Image created as Test.svg date 2025/12/17 00:35:57 </dc:title>
      </cc:Work>
    </rdf:RDF>
  </metadata>
</svg>
