<?xml version="1.0" encoding="UTF-8" standalone="no"?>
<svg
   width="100"
   height="153"
   viewBox="0 0 100 153"
   version="1.1"
   id="svg3"
   sodipodi:docname="VAC.svg"
   inkscape:version="1.4.2 (f4327f4, 2025-05-13)"
   xmlns:inkscape="http://www.inkscape.org/namespaces/inkscape"
   xmlns:sodipodi="http://sodipodi.sourceforge.net/DTD/sodipodi-0.dtd"
   xmlns="http://www.w3.org/2000/svg"
   xmlns:svg="http://www.w3.org/2000/svg">
  <defs
     id="defs3" />
  <sodipodi:namedview
     id="namedview3"
     pagecolor="#ffffff"
     bordercolor="#000000"
     borderopacity="0.25"
     inkscape:showpageshadow="2"
     inkscape:pageopacity="0.0"
     inkscape:pagecheckerboard="0"
     inkscape:deskcolor="#d1d1d1"
     inkscape:zoom="2.743778"
     inkscape:cx="12.573904"
     inkscape:cy="106.24037"
     inkscape:window-width="1920"
     inkscape:window-height="1009"
     inkscape:window-x="-8"
     inkscape:window-y="-8"
     inkscape:window-maximized="1"
     inkscape:current-layer="svg3" />
  <path
     d="m 38.235295,60.023516 c -8.086988,0 -14.70588,6.618872 -14.70588,14.705886 a 2.9411763,2.9411763 0 0 0 2.941177,2.941172 2.9411763,2.9411763 0 0 0 2.941177,-2.941172 c 0,-4.907937 3.915597,-8.823533 8.823526,-8.823533 4.907935,0 8.823532,3.915616 8.823532,8.823533 0,8.086989 6.618886,14.705882 14.705881,14.705882 8.086987,0 14.705879,-6.618893 14.705879,-14.705882 a 2.9411763,2.9411763 0 0 0 -2.941177,-2.941178 2.9411763,2.9411763 0 0 0 -2.941177,2.941178 c 0,4.907911 -3.915597,8.823527 -8.823525,8.823527 -4.907936,0 -8.823532,-3.915616 -8.823532,-8.823527 0,-8.086995 -6.618887,-14.705886 -14.705881,-14.705886 z"
     style="baseline-shift:baseline;display:inline;overflow:visible;vector-effect:none;stroke-width:6.35213;stroke-linecap:round;enable-background:accumulate;stop-color:#000000"
     id="path11" />
  <circle
     cx="49.99659"
     cy="76.471725"
     style="fill:none;stroke:#000000;stroke-width:5.88195"
     id="circle1"
     r="47.055614" />
  <path
     d="M 49.996585,2.9409755 V 29.416112"
     style="stroke:#000000;stroke-width:5.88195;stroke-linecap:round"
     id="path1" />
  <path
     d="m 49.996585,123.52734 v 26.47514"
     style="stroke:#000000;stroke-width:5.88195;stroke-linecap:round"
     id="path2" />
  <circle
     id="pin1"
     cx="49.99659"
     cy="2.9409804"
     r="1.0036161"
     style="stroke-width:6.352" />
  <circle
     id="pin2"
     cx="49.99659"
     cy="150.00247"
     r="1.0036161"
     style="stroke-width:6.352" />
</svg>
