<?xml version="1.0" encoding="UTF-8" standalone="no"?>
<!-- Created with Inkscape (http://www.inkscape.org/) -->

<svg
   width="90"
   height="175.77817"
   viewBox="0 0 90 175.77818"
   version="1.1"
   id="svg1"
   inkscape:version="1.4.2 (f4327f4, 2025-05-13)"
   sodipodi:docname="Library.svg"
   xmlns:inkscape="http://www.inkscape.org/namespaces/inkscape"
   xmlns:sodipodi="http://sodipodi.sourceforge.net/DTD/sodipodi-0.dtd"
   xmlns="http://www.w3.org/2000/svg"
   xmlns:svg="http://www.w3.org/2000/svg">
  <sodipodi:namedview
     id="namedview1"
     pagecolor="#ffffff"
     bordercolor="#000000"
     borderopacity="0.25"
     inkscape:showpageshadow="2"
     inkscape:pageopacity="0.0"
     inkscape:pagecheckerboard="0"
     inkscape:deskcolor="#d1d1d1"
     inkscape:document-units="px"
     inkscape:zoom="1.0167041"
     inkscape:cx="459.81914"
     inkscape:cy="285.72718"
     inkscape:window-width="1920"
     inkscape:window-height="1009"
     inkscape:window-x="-8"
     inkscape:window-y="-8"
     inkscape:window-maximized="1"
     inkscape:current-layer="layer1">
    <inkscape:page
       x="0"
       y="0"
       width="90"
       height="175.77818"
       id="page2"
       margin="0"
       bleed="0" />
  </sodipodi:namedview>
  <defs
     id="defs1" />
  <g
     inkscape:label="Layer 1"
     inkscape:groupmode="layer"
     id="layer1"
     transform="translate(-592.45111,-223.96808)">
    <g
       id="IDCS"
       inkscape:export-filename="IDCS.svg"
       inkscape:export-xdpi="96"
       inkscape:export-ydpi="96"
       transform="matrix(7.5926685,0,0,7.5926685,46.067079,36.276666)">
      <path
         d="m 77.425807,43.858451 v 3.549655 a 0.46302083,0.46302083 0 0 0 0.46302,0.46302 0.46302083,0.46302083 0 0 0 0.46302,-0.46302 v -3.549655 l -0.0925,0.123507 h -0.74104 z"
         style="baseline-shift:baseline;display:inline;overflow:visible;opacity:1;vector-effect:none;stroke-linecap:round;enable-background:accumulate;stop-color:#000000;stop-opacity:1"
         id="path27" />
      <path
         d="m 77.888827,24.720085 a 0.46302083,0.46302083 0 0 0 -0.46302,0.463021 v 3.55017 l 0.0925,-0.123506 h 0.74104 l 0.0925,0.123506 v -3.55017 a 0.46302083,0.46302083 0 0 0 -0.46302,-0.463021 z"
         style="baseline-shift:baseline;display:inline;overflow:visible;opacity:1;vector-effect:none;stroke-linecap:round;enable-background:accumulate;stop-color:#000000;stop-opacity:1"
         id="path26" />
      <path
         d="m 77.518307,28.60977 -5.55625,7.408333 v 0.555522 l 5.55625,7.408333 h 0.74104 l 5.55625,-7.408333 v -0.555522 l -5.55625,-7.408333 z m 0.37052,1.049548 4.97747,6.636288 -4.97747,6.636804 -4.97747,-6.636804 z"
         style="baseline-shift:baseline;display:inline;overflow:visible;opacity:1;vector-effect:none;stroke-linecap:round;stroke-linejoin:bevel;enable-background:accumulate;stop-color:#000000;stop-opacity:1"
         id="path22" />
    </g>
  </g>
</svg>
