<?xml version="1.0" encoding="UTF-8" standalone="no"?>
<!-- Created with Inkscape (http://www.inkscape.org/) -->

<svg
   width="41.176773"
   height="40.522774"
   viewBox=""
   version="1.1"
   id="svg1"
   sodipodi:docname="D.svg"
   inkscape:version="1.4.2 (f4327f4, 2025-05-13)"
   xmlns:inkscape="http://www.inkscape.org/namespaces/inkscape"
   xmlns:sodipodi="http://sodipodi.sourceforge.net/DTD/sodipodi-0.dtd"
   xmlns="http://www.w3.org/2000/svg"
   xmlns:svg="http://www.w3.org/2000/svg">
  <sodipodi:namedview
     id="namedview1"
     pagecolor="#ffffff"
     bordercolor="#000000"
     borderopacity="0.25"
     inkscape:showpageshadow="2"
     inkscape:pageopacity="0.0"
     inkscape:pagecheckerboard="0"
     inkscape:deskcolor="#d1d1d1"
     inkscape:zoom="19.914728"
     inkscape:cx="20.612886"
     inkscape:cy="20.261387"
     inkscape:window-width="1920"
     inkscape:window-height="1009"
     inkscape:window-x="-8"
     inkscape:window-y="-8"
     inkscape:window-maximized="1"
     inkscape:current-layer="svg1" />
  <defs
     id="defs1" />
  <metadata
     ascent="44.800000000000004"
     descent="-11.200000000000001"
     cap-height="28.0"
     x-height="16.8"
     horiz-adv-x="1"
     id="NA"
     units-per-em="56" />
  <path
     style="fill:none;stroke:#111111;stroke-width:3.77953;stroke-dasharray:none"
     d="m 27.87823,0.452 c -1.09898,4.4609 -1.8331,9.569 -2.73302,15 -0.36983,2.2319 -0.54697,3.7567 -1.76544,6 -1.71692,3.1611 -2.67419,4.2905 -4.87654,7 C 16.79018,30.5595 5.53469,42.9012 2.4824,37.0909 -0.44268,31.5227 8.63147,13.7383 15.82036,14.489 c 5.29896,0.5534 5.04782,6.1802 6.05787,7.963 m 1,0 c 0.83701,1.5681 1.62247,2.9716 1.98611,6.0046 0.33388,2.7848 0.50126,7.1494 3.43287,9.0679 4.23552,2.7718 8.70423,-2.3516 11.58102,-5.0725"
     id="d" />
</svg>
